<svg width="146" height="145" viewBox="0 0 146 145" fill="none" xmlns="http://www.w3.org/2000/svg">
<rect x="21.952" y="21.2136" width="102.426" height="102.426" fill="white"/>
<rect x="51.952" y="21.2136" width="30" height="30" transform="rotate(-45 51.952 21.2136)" fill="#1642A9"/>
<rect x="51.952" y="123.64" width="30" height="30" transform="rotate(-45 51.952 123.64)" fill="#1642A9"/>
<rect x="103.165" y="72.4268" width="30" height="30" transform="rotate(-45 103.165 72.4268)" fill="#1642A9"/>
<rect x="0.738831" y="72.4268" width="30" height="30" transform="rotate(-45 0.738831 72.4268)" fill="#1642A9"/>
<rect x="94.3784" y="21.2136" width="30" height="30" fill="#1642A9"/>
<rect x="21.952" y="21.2136" width="30" height="30" fill="#1642A9"/>
<rect x="21.952" y="93.64" width="30" height="30" fill="#1642A9"/>
<rect x="94.3784" y="93.64" width="30" height="30" fill="#1642A9"/>
<path d="M73.1652 57.4268L88.1652 72.4268L73.1652 87.4268L58.1652 72.4268L73.1652 57.4268Z" fill="#34A851"/>
</svg>
